<svg width="42" height="33" viewBox="0 0 42 33" fill="none" xmlns="http://www.w3.org/2000/svg">
<g clip-path="url(#clip0_1804_4525)">
<path d="M6.76483 27.6266C6.57952 27.022 6.3942 26.4242 6.21575 25.8265C5.60491 23.7584 4.97347 21.6972 4.4038 19.6222C3.80668 17.4442 3.36055 15.2319 2.9762 13.0058C2.83207 12.1607 2.70166 11.3087 2.5438 10.4636C2.42712 9.84526 2.10454 9.35744 1.53487 9.07575C0.347492 8.48487 0.148451 7.22753 0.718119 6.1557C1.06816 5.49612 1.60351 5.07014 2.37908 5.04265C3.37428 5.0083 4.21162 5.68163 4.45184 6.67788C4.6097 7.34433 4.50675 7.96957 4.10181 8.53296C3.97826 8.69786 3.84786 8.86963 3.71745 9.04139C3.54587 9.26125 3.51841 9.48799 3.66255 9.7422C4.6097 11.4186 5.54313 13.1088 6.50402 14.7784C7.56099 16.5991 8.85133 18.255 10.2927 19.7803C10.6633 20.1719 11.1163 20.4673 11.6104 20.6735C12.0085 20.8384 12.3929 20.7903 12.6949 20.488C12.99 20.1925 13.2645 19.8765 13.5116 19.5398C14.8431 17.7534 15.8795 15.7953 16.7718 13.7547C17.918 11.1438 19.0367 8.51922 20.1555 5.90149C20.3408 5.46177 20.4025 5.53734 19.8603 5.26252C19.0161 4.83653 18.5906 4.13572 18.3778 3.26315C18.1856 2.46615 18.4053 1.75847 18.9063 1.13323C19.476 0.439295 20.1829 -0.0141699 21.1095 -0.000428578C21.7958 0.0133128 22.3312 0.38433 22.8253 0.830924C24.0333 1.9371 23.7656 4.31436 22.4273 5.13197C22.3861 5.15946 22.3449 5.18694 22.3037 5.22129C21.9262 5.50986 21.8507 5.73659 22.0292 6.18319C22.3312 6.92522 22.64 7.66726 22.9626 8.39555C23.9715 10.6904 24.9599 12.992 26.01 15.2662C26.6826 16.7297 27.5268 18.1107 28.4397 19.4436C28.7073 19.8352 29.0574 20.165 29.4005 20.5017C29.7368 20.8315 30.1281 20.8521 30.533 20.6185C31.137 20.275 31.6929 19.8627 32.1665 19.3405C34.1569 17.1282 35.7492 14.641 37.1631 12.037C37.5543 11.3156 37.9181 10.5736 38.2956 9.83839C38.5152 9.39867 38.4809 9.16506 38.1446 8.80092C37.8357 8.46426 37.5681 8.10698 37.472 7.65351C37.2592 6.61604 37.8975 5.5236 38.927 5.16633C40.2379 4.71286 41.5763 5.67476 41.5969 7.06951C41.6038 7.79093 41.3841 8.40242 40.8968 8.91772C40.787 9.03452 40.6154 9.11697 40.4576 9.15819C40.0801 9.25438 39.8193 9.46737 39.7301 9.85213C39.3663 11.3362 38.9819 12.8134 38.6525 14.3043C37.925 17.561 37.2592 20.8384 36.3464 24.047C36.0993 24.9264 35.7973 25.7921 35.5228 26.6716C35.4747 26.8296 35.4267 26.9876 35.3855 27.1525C35.2963 27.4823 35.1247 27.6266 34.7815 27.6266C34.0471 27.6335 33.3059 27.6266 32.5646 27.6266C31.5282 27.6266 30.4987 27.6266 29.4623 27.6266C22.0017 27.6266 14.548 27.6266 7.08741 27.6266C6.97074 27.6266 6.87465 27.6266 6.76483 27.6266Z" fill="white"/>
<path d="M6.73181 32.8353C6.73181 31.3994 6.73181 29.9909 6.73181 28.5618C16.224 28.5618 25.7093 28.5618 35.2083 28.5618C35.2083 29.984 35.2083 31.4062 35.2083 32.8353C25.7093 32.8353 16.2308 32.8353 6.73181 32.8353Z" fill="white"/>
<path d="M31.4999 9.7425C31.493 10.0448 31.3352 10.4158 31.0606 10.7456C30.9508 10.8762 30.8341 11.0136 30.7174 11.1372C30.5115 11.3571 30.4978 11.5976 30.6419 11.8518C30.9508 12.4015 31.2528 12.9511 31.5616 13.4939C32.0352 14.3184 32.5157 15.1291 32.9892 15.9536C33.2501 16.4139 33.2363 16.6063 32.8794 16.9773C32.2205 17.6575 31.5616 18.3377 30.8822 19.0042C30.4978 19.3821 30.0448 19.3821 29.6124 19.0454C28.48 18.1797 27.5534 17.1216 26.7504 15.9536C26.6817 15.8574 26.6817 15.7887 26.7366 15.6788C27.4504 14.3939 28.1642 13.1023 28.878 11.8106C29.0702 11.4602 29.0496 11.3296 28.7408 11.0685C28.1025 10.5258 27.8485 9.78372 28.075 9.09665C28.329 8.32713 29.2075 7.75 29.9419 7.87367C30.8204 8.02482 31.4999 8.78747 31.4999 9.7425Z" fill="white"/>
<path d="M12.2848 11.5344C12.6349 12.139 13.0055 12.7849 13.3761 13.4238C13.8428 14.2208 14.3164 15.0178 14.7763 15.8217C15.0783 16.3507 15.0645 16.708 14.6459 17.1409C14.0007 17.8073 13.3349 18.4463 12.6623 19.0784C12.326 19.3945 11.9348 19.3601 11.5573 19.0922C10.4248 18.2952 9.55317 17.2508 8.76387 16.124C8.57169 15.8492 8.56483 15.6362 8.72955 15.3614C9.34726 14.3239 9.94439 13.2796 10.5552 12.2352C10.9053 11.6375 10.871 11.2871 10.4042 10.7718C9.82084 10.119 9.81398 9.11592 10.3905 8.47694C11.0014 7.80362 11.9554 7.67307 12.6417 8.16776C13.4516 8.75177 13.5752 10.1328 12.8888 10.8954C12.6898 11.1015 12.4976 11.3077 12.2848 11.5344Z" fill="white"/>
</g>
<defs>
<clipPath id="clip0_1804_4525">
<rect width="41.1671" height="32.835" fill="white" transform="translate(0.416504)"/>
</clipPath>
</defs>
</svg>
